STARTFONT 2.1
FONT "cust"
SIZE 16 75 75
FONTBOUNDINGBOX 16 16 0 0
STARTPROPERTIES 3
COPYRIGHT "unknown"
FONT_ASCENT 0
FONT_DESCENT 0
ENDPROPERTIES
STARTCHAR cust_next.png
ENCODING 65
DWIDTH 32 0
BBX 32 26 0 0
BITMAP
00000000
00000000
00000000
00000000
00000000
06003000
07003800
07c03e00
07f03f80
07f83fc0
07fe3ff0
07ff3ff8
07fffffe
07fffffe
07ff3ff8
07fe3ff0
07f83fc0
07f03f80
07c03e00
07803800
06003000
00000000
00000000
00000000
00000000
00000000
ENDCHAR
STARTCHAR cust_playpause.png
ENCODING 66
DWIDTH 32 0
BBX 32 26 0 0
BITMAP
00000000
00000000
00000000
00000000
00000000
00600300
00700700
007c0700
007e0700
007f8300
007fe300
007ff700
007fff00
007fff00
007ff700
007fe700
007f8700
007f0700
007c0700
00700700
00600300
00000000
00000000
00000000
00000000
00000000
ENDCHAR
STARTCHAR cust_prev.png
ENCODING 67
DWIDTH 32 0
BBX 32 26 0 0
BITMAP
00000000
00000000
00000000
00000000
00000000
00060030
000e00f0
003e01f0
00fe07f0
01fe0ff0
07fe3ff0
0ffe7ff0
3ffffff0
3ffffff0
0ffe7ff0
07fe3ff0
01fe0ff0
00fe07f0
003e01f0
001e00f0
00060030
00000000
00000000
00000000
00000000
00000000
ENDCHAR
